<svg width="351" height="225" viewBox="0 0 351 225" fill="none" xmlns="http://www.w3.org/2000/svg">
<path d="M346.969 9.34231C349.962 14.3211 348.807 22.0093 343.068 32.1912C337.395 42.2544 327.52 54.239 314.16 67.372C287.456 93.621 247.071 124.219 199.331 152.912C151.592 181.605 105.62 202.909 69.9099 214.172C52.0431 219.807 36.8264 222.903 25.2779 223.19C13.5932 223.481 6.26231 220.892 3.26997 215.914C0.277627 210.935 1.43195 203.247 7.1718 193.065C12.8448 183.002 22.7189 171.017 36.0794 157.884C62.7832 131.635 103.168 101.037 150.908 72.344C198.648 43.6514 244.619 22.3474 280.33 11.0839C298.196 5.4486 313.413 2.35308 324.962 2.06578C336.646 1.7751 343.977 4.36357 346.969 9.34231Z" stroke="#D5A660" stroke-width="3"/>
</svg>
