<svg width="73" height="57" viewBox="0 0 73 57" fill="none" xmlns="http://www.w3.org/2000/svg">
<path d="M72.309 43.7333L69.0787 31.1434C69.0787 31.0606 68.9958 30.9777 68.913 30.8949C68.913 30.8121 68.8302 30.8121 68.8302 30.8121L59.8019 23.606L59.0565 20.6242C59.0565 20.5414 58.9736 20.4585 58.8908 20.3757C58.8908 20.2929 58.808 20.2929 58.808 20.2929L38.4323 4.05858C38.1838 3.89292 37.9353 3.8101 37.6868 3.89292L22.6121 8.61413C22.5293 8.61413 22.4464 8.69695 22.3636 8.69695C22.3636 8.69695 22.3636 8.69695 22.2808 8.69695C22.1979 8.77978 22.1979 8.77978 22.1151 8.86261L21.6181 9.69089L20.3757 0.745453C20.2929 0.331312 19.9616 0 19.5474 0C19.1333 0 18.802 0.331312 18.7192 0.745453L16.5656 16.3171L0.745453 18.6363C0.331312 18.7192 0 19.0505 0 19.4646C0 19.8788 0.331312 20.2101 0.745453 20.2929L16.2343 22.4464L16.4828 24.1858L13.004 25.2626C12.9212 25.2626 12.8384 25.3454 12.7555 25.3454C12.7555 25.3454 12.7555 25.3454 12.6727 25.4282C12.5899 25.5111 12.5899 25.5111 12.507 25.5939L6.4606 35.6989C6.21211 36.0302 6.29494 36.5272 6.62625 36.7757L31.7232 56.8201H31.806L31.8888 56.9029C31.9717 56.9029 31.9717 56.9858 32.0545 56.9858H32.1373H32.2201C32.303 56.9858 32.3858 56.9858 32.4686 56.9858L52.0989 50.8565L71.7292 44.7272C72.1433 44.6444 72.3918 44.1474 72.309 43.7333ZM66.511 31.0606L62.1211 32.4686L60.5474 26.3393L66.511 31.0606ZM51.5191 45.307L49.6141 38.0181L52.2646 37.1898L51.5191 45.307ZM33.7111 41.2484L21.0383 31.1434L21.9495 24.6L40.2545 39.1777L33.7111 41.2484ZM17.8081 21.6181C17.7252 21.2868 17.4767 20.9555 17.0626 20.8727L6.87474 19.4646L16.6485 18.1394L17.3939 18.0565C17.7252 17.9737 18.0565 17.7252 18.1394 17.3111L18.4707 15.1575L19.6303 6.95756L20.3757 12.0929L20.707 14.7434L21.1212 17.3939C21.204 17.7252 21.4525 18.0565 21.8666 18.1394L32.0545 19.5474L21.5353 21.0383C21.204 21.1212 20.9555 21.2868 20.8727 21.6181V21.701L20.707 22.9434L20.6242 23.4404L20.4586 24.6828L19.7131 29.901L19.2161 31.8888L18.8848 29.4868L18.305 25.3454L18.0565 23.6888L17.8081 21.6181ZM57.6484 21.8666L60.4645 32.7999L42.7393 38.2666L43.8989 26.0909L57.6484 21.8666ZM41.1656 37.9353L22.1979 22.7777V22.5293L35.6161 20.6242L42.2424 25.9252L41.1656 37.9353ZM37.7696 5.63231L56.4888 20.5414L43.3191 24.6L37.9353 20.2929H38.0181C38.4323 20.2101 38.7636 19.8788 38.7636 19.4646C38.7636 19.0505 38.4323 18.7192 38.0181 18.6363L35.3676 18.305L24.6 9.69089L37.7696 5.63231ZM23.1091 10.602L32.2201 17.8081L22.5293 16.4828L22.0323 12.4242L23.1091 10.602ZM16.6485 25.8424L16.9798 27.9959L14.9919 26.4222L16.6485 25.8424ZM13.4182 27.2505L17.3111 30.3151L18.3878 38.1009C18.4707 38.5151 18.802 38.8464 19.2161 38.8464C19.6303 38.8464 19.9616 38.5151 20.0444 38.1009L20.707 33.0484L32.6343 42.4908L31.4747 54.5009L8.28281 35.9474L13.4182 27.2505ZM33.1313 54.9979L34.2909 42.8221L48.0403 38.5151L50.8565 49.4484L33.1313 54.9979ZM52.8444 48.9514L54.0039 36.7757L67.7534 32.4686L70.5696 43.4019L52.8444 48.9514Z" fill="url(#paint0_linear_69_61)"/>
<defs>
<linearGradient id="paint0_linear_69_61" x1="0" y1="0" x2="72.3248" y2="0" gradientUnits="userSpaceOnUse">
<stop stop-color="#8F5E25"/>
<stop offset="0.5" stop-color="#FBF4A1"/>
<stop offset="1" stop-color="#8F5E25"/>
</linearGradient>
</defs>
</svg>
