<svg width="213" height="22" viewBox="0 0 213 22" fill="none" xmlns="http://www.w3.org/2000/svg">
<path d="M6.16477 21L0.596591 0.636363H3.10227L7.35795 17.2216H7.55682L11.892 0.636363H14.6761L19.0114 17.2216H19.2102L23.4659 0.636363H25.9716L20.4034 21H17.858L13.3636 4.77273H13.2045L8.71023 21H6.16477ZM29.044 21V0.636363H41.3338V2.82386H31.5099V9.70455H40.6974V11.892H31.5099V18.8125H41.4929V21H29.044ZM56.9148 5.72727C56.7955 4.7197 56.3116 3.9375 55.4631 3.38068C54.6146 2.82386 53.5739 2.54545 52.3409 2.54545C51.4394 2.54545 50.6506 2.69129 49.9744 2.98295C49.3049 3.27462 48.7813 3.67566 48.4034 4.18608C48.0322 4.6965 47.8466 5.27651 47.8466 5.92614C47.8466 6.4697 47.9759 6.93703 48.2344 7.32812C48.4995 7.71259 48.8376 8.03409 49.2486 8.29261C49.6596 8.54451 50.0904 8.75331 50.5412 8.91903C50.992 9.07812 51.4062 9.20739 51.7841 9.30682L53.8523 9.86364C54.3826 10.0028 54.9725 10.1951 55.6222 10.4403C56.2784 10.6856 56.9048 11.0204 57.5014 11.4446C58.1046 11.8622 58.6018 12.3991 58.9929 13.0554C59.384 13.7116 59.5795 14.517 59.5795 15.4716C59.5795 16.572 59.2912 17.5663 58.7145 18.4545C58.1444 19.3428 57.3092 20.0488 56.2088 20.5724C55.1151 21.0961 53.786 21.358 52.2216 21.358C50.7633 21.358 49.5005 21.1226 48.4332 20.652C47.3726 20.1813 46.5374 19.5251 45.9276 18.6832C45.3243 17.8414 44.983 16.8636 44.9034 15.75H47.4489C47.5152 16.5189 47.7737 17.1553 48.2244 17.6591C48.6818 18.1562 49.2585 18.5275 49.9545 18.7727C50.6572 19.0114 51.4129 19.1307 52.2216 19.1307C53.1629 19.1307 54.008 18.9782 54.7571 18.6733C55.5062 18.3617 56.0994 17.9309 56.5369 17.3807C56.9744 16.8239 57.1932 16.1742 57.1932 15.4318C57.1932 14.7557 57.0043 14.2055 56.6264 13.7812C56.2486 13.357 55.7514 13.0123 55.1349 12.7472C54.5185 12.482 53.8523 12.25 53.1364 12.0511L50.6307 11.3352C49.0398 10.8778 47.7803 10.2249 46.8523 9.37642C45.9242 8.52794 45.4602 7.41761 45.4602 6.04545C45.4602 4.9053 45.7685 3.91098 46.3849 3.0625C47.008 2.20739 47.8433 1.54451 48.8906 1.07386C49.9446 0.59659 51.1212 0.357954 52.4205 0.357954C53.733 0.357954 54.8996 0.593276 55.9205 1.06392C56.9413 1.52793 57.75 2.1643 58.3466 2.97301C58.9498 3.78172 59.268 4.69981 59.3011 5.72727H56.9148ZM62.5202 2.82386V0.636363H77.793V2.82386H71.3896V21H68.9237V2.82386H62.5202ZM81.5987 21V0.636363H93.8885V2.82386H84.0646V9.70455H93.2521V11.892H84.0646V18.8125H94.0476V21H81.5987ZM98.3331 21V0.636363H105.214C106.805 0.636363 108.111 0.908143 109.131 1.4517C110.152 1.98864 110.908 2.72775 111.398 3.66903C111.889 4.61032 112.134 5.68087 112.134 6.88068C112.134 8.08049 111.889 9.14441 111.398 10.0724C110.908 11.0005 110.156 11.7296 109.141 12.2599C108.127 12.7836 106.831 13.0455 105.254 13.0455H99.6854V10.8182H105.174C106.261 10.8182 107.136 10.6591 107.799 10.3409C108.469 10.0227 108.952 9.57197 109.251 8.98864C109.556 8.39867 109.708 7.69602 109.708 6.88068C109.708 6.06534 109.556 5.35275 109.251 4.7429C108.946 4.13305 108.459 3.66241 107.789 3.33097C107.12 2.9929 106.235 2.82386 105.134 2.82386H100.799V21H98.3331ZM107.918 11.8523L112.93 21H110.066L105.134 11.8523H107.918ZM132.391 0.636363V21H130.005L118.908 5.01136H118.709V21H116.243V0.636363H118.63L129.766 16.6648H129.965V0.636363H132.391ZM156.337 5.72727C156.217 4.7197 155.733 3.9375 154.885 3.38068C154.036 2.82386 152.996 2.54545 151.763 2.54545C150.861 2.54545 150.072 2.69129 149.396 2.98295C148.727 3.27462 148.203 3.67566 147.825 4.18608C147.454 4.6965 147.268 5.27651 147.268 5.92614C147.268 6.4697 147.398 6.93703 147.656 7.32812C147.921 7.71259 148.259 8.03409 148.67 8.29261C149.081 8.54451 149.512 8.75331 149.963 8.91903C150.414 9.07812 150.828 9.20739 151.206 9.30682L153.274 9.86364C153.804 10.0028 154.394 10.1951 155.044 10.4403C155.7 10.6856 156.327 11.0204 156.923 11.4446C157.527 11.8622 158.024 12.3991 158.415 13.0554C158.806 13.7116 159.001 14.517 159.001 15.4716C159.001 16.572 158.713 17.5663 158.136 18.4545C157.566 19.3428 156.731 20.0488 155.631 20.5724C154.537 21.0961 153.208 21.358 151.643 21.358C150.185 21.358 148.922 21.1226 147.855 20.652C146.795 20.1813 145.959 19.5251 145.349 18.6832C144.746 17.8414 144.405 16.8636 144.325 15.75H146.871C146.937 16.5189 147.196 17.1553 147.646 17.6591C148.104 18.1562 148.68 18.5275 149.376 18.7727C150.079 19.0114 150.835 19.1307 151.643 19.1307C152.585 19.1307 153.43 18.9782 154.179 18.6733C154.928 18.3617 155.521 17.9309 155.959 17.3807C156.396 16.8239 156.615 16.1742 156.615 15.4318C156.615 14.7557 156.426 14.2055 156.048 13.7812C155.67 13.357 155.173 13.0123 154.557 12.7472C153.94 12.482 153.274 12.25 152.558 12.0511L150.053 11.3352C148.462 10.8778 147.202 10.2249 146.274 9.37642C145.346 8.52794 144.882 7.41761 144.882 6.04545C144.882 4.9053 145.19 3.91098 145.807 3.0625C146.43 2.20739 147.265 1.54451 148.312 1.07386C149.366 0.59659 150.543 0.357954 151.842 0.357954C153.155 0.357954 154.321 0.593276 155.342 1.06392C156.363 1.52793 157.172 2.1643 157.768 2.97301C158.372 3.78172 158.69 4.69981 158.723 5.72727H156.337ZM161.942 2.82386V0.636363H177.215V2.82386H170.811V21H168.346V2.82386H161.942ZM179.477 21H176.892L184.369 0.636363H186.914L194.392 21H191.806L185.721 3.85795H185.562L179.477 21ZM180.431 13.0455H190.852V15.233H180.431V13.0455ZM197.564 21V0.636363H204.444C206.035 0.636363 207.341 0.908143 208.362 1.4517C209.383 1.98864 210.138 2.72775 210.629 3.66903C211.119 4.61032 211.365 5.68087 211.365 6.88068C211.365 8.08049 211.119 9.14441 210.629 10.0724C210.138 11.0005 209.386 11.7296 208.372 12.2599C207.358 12.7836 206.062 13.0455 204.484 13.0455H198.916V10.8182H204.404C205.492 10.8182 206.367 10.6591 207.029 10.3409C207.699 10.0227 208.183 9.57197 208.481 8.98864C208.786 8.39867 208.939 7.69602 208.939 6.88068C208.939 6.06534 208.786 5.35275 208.481 4.7429C208.176 4.13305 207.689 3.66241 207.02 3.33097C206.35 2.9929 205.465 2.82386 204.365 2.82386H200.029V21H197.564ZM207.149 11.8523L212.16 21H209.297L204.365 11.8523H207.149Z" fill="url(#paint0_linear_394_170)"/>
<defs>
<linearGradient id="paint0_linear_394_170" x1="0" y1="-6" x2="214" y2="-6" gradientUnits="userSpaceOnUse">
<stop stop-color="#8F5E25"/>
<stop offset="0.5" stop-color="#FBF4A1"/>
<stop offset="1" stop-color="#8F5E25"/>
</linearGradient>
</defs>
</svg>
