<svg width="268" height="268" viewBox="0 0 268 268" fill="none" xmlns="http://www.w3.org/2000/svg">
<path d="M134 8.375C64.7304 8.375 8.375 64.7304 8.375 134C8.375 203.27 64.7304 259.625 134 259.625C203.27 259.625 259.625 203.27 259.625 134C259.625 64.7304 203.27 8.375 134 8.375ZM134 253.36C68.1852 253.36 14.6403 199.815 14.6403 134C14.6403 68.1852 68.1852 14.6403 134 14.6403C199.815 14.6403 253.36 68.1839 253.36 134C253.36 199.816 199.815 253.36 134 253.36Z" fill="url(#paint0_linear_62_155)"/>
<path d="M166.584 116.843L163.707 105.628C163.707 105.555 163.633 105.481 163.559 105.407C163.559 105.333 163.485 105.333 163.485 105.333L155.443 98.9145L154.779 96.2584C154.779 96.1847 154.706 96.1109 154.632 96.0371C154.632 95.9633 154.558 95.9633 154.558 95.9633L136.408 81.5027C136.187 81.3551 135.966 81.2813 135.744 81.3551L122.317 85.5605C122.243 85.5605 122.169 85.6343 122.095 85.6343C122.095 85.6343 122.095 85.6343 122.022 85.6343C121.948 85.7081 121.948 85.7081 121.874 85.7818L121.431 86.5196L120.325 78.5515C120.251 78.1826 119.956 77.8875 119.587 77.8875C119.218 77.8875 118.923 78.1826 118.849 78.5515L116.931 92.4219L102.839 94.4877C102.47 94.5615 102.175 94.8566 102.175 95.2255C102.175 95.5944 102.47 95.8895 102.839 95.9633L116.636 97.8816L116.857 99.4309L113.758 100.39C113.685 100.39 113.611 100.464 113.537 100.464C113.537 100.464 113.537 100.464 113.463 100.538C113.389 100.611 113.389 100.611 113.316 100.685L107.93 109.686C107.708 109.981 107.782 110.424 108.077 110.645L130.432 128.5H130.506L130.58 128.574C130.654 128.574 130.654 128.647 130.727 128.647H130.801H130.875C130.949 128.647 131.023 128.647 131.096 128.647L148.582 123.188L166.068 117.728C166.436 117.654 166.658 117.212 166.584 116.843ZM161.419 105.555L157.509 106.809L156.107 101.349L161.419 105.555ZM148.066 118.245L146.369 111.752L148.73 111.014L148.066 118.245ZM132.203 114.629L120.915 105.628L121.726 99.7998L138.032 112.785L132.203 114.629ZM118.038 97.1438C117.964 96.8487 117.742 96.5535 117.373 96.4798L108.299 95.2255L117.005 94.0451L117.669 93.9713C117.964 93.8975 118.259 93.6762 118.333 93.3073L118.628 91.389L119.661 84.0849L120.325 88.6592L120.62 91.0201L120.989 93.3811C121.062 93.6762 121.284 93.9713 121.653 94.0451L130.727 95.2993L121.358 96.6273C121.062 96.7011 120.841 96.8487 120.767 97.1438V97.2176L120.62 98.3242L120.546 98.7669L120.398 99.8736L119.734 104.522L119.292 106.292L118.997 104.153L118.48 100.464L118.259 98.9883L118.038 97.1438ZM153.525 97.3651L156.034 107.104L140.245 111.973L141.278 101.128L153.525 97.3651ZM138.843 111.678L121.948 98.1767V97.9553L133.9 96.2584L139.802 100.98L138.843 111.678ZM135.818 82.9045L152.492 96.1847L140.761 99.7998L135.966 95.9633H136.04C136.408 95.8895 136.704 95.5944 136.704 95.2255C136.704 94.8566 136.408 94.5615 136.04 94.4877L133.679 94.1926L124.087 86.5196L135.818 82.9045ZM122.759 87.3312L130.875 93.75L122.243 92.5695L121.8 88.9543L122.759 87.3312ZM117.005 100.907L117.3 102.825L115.529 101.423L117.005 100.907ZM114.127 102.161L117.595 104.891L118.554 111.826C118.628 112.195 118.923 112.49 119.292 112.49C119.661 112.49 119.956 112.195 120.03 111.826L120.62 107.325L131.244 115.736L130.211 126.434L109.553 109.908L114.127 102.161ZM131.687 126.877L132.719 116.031L144.967 112.195L147.475 121.933L131.687 126.877ZM149.246 121.491L150.279 110.645L162.526 106.809L165.035 116.548L149.246 121.491Z" fill="url(#paint1_linear_62_155)"/>
<path d="M60.7259 170.471H57.9055L50.25 145.994H52.9361L59.3492 166.778H59.4164L65.8631 145.994H68.7843L75.2981 166.878H75.3317L81.7784 145.994H84.3638L76.6747 170.471H73.8207L67.3069 149.452L60.7259 170.471ZM89.4372 170.471V145.994H104.748V148.378H92.0226V156.839H103.674V159.223H92.0226V168.087H104.882V170.471H89.4372ZM117.779 170.706C115.462 170.706 113.246 169.833 111.803 168.557C110.292 167.248 109.318 165.502 109.116 163.789L111.534 163.118C111.803 164.561 112.541 165.77 113.75 166.778C114.925 167.785 116.268 168.288 117.779 168.288C119.189 168.288 120.499 167.953 121.54 167.214C122.581 166.509 123.252 165.3 123.252 163.823C123.252 162.11 122.346 161.002 121.204 160.331C120.398 159.861 119.693 159.659 118.887 159.491L115.664 158.853C114.992 158.719 114.287 158.484 113.515 158.148C112.743 157.779 112.071 157.342 111.5 156.772C110.359 155.664 109.788 154.253 109.788 152.541C109.788 151.198 110.157 149.989 110.896 148.948C111.635 147.874 112.575 147.102 113.75 146.531C114.925 145.994 116.167 145.725 117.544 145.725C122.816 145.725 125.132 148.982 125.636 151.601L123.286 152.34C122.883 150.594 121.305 148.109 117.511 148.109C114.892 148.042 112.34 149.888 112.373 152.44C112.373 154.321 113.549 155.832 115.932 156.302L119.021 156.906C121.103 157.309 122.715 158.014 123.789 159.055C124.528 159.726 125.065 160.499 125.401 161.305C125.737 162.144 125.905 162.883 125.905 163.554C125.938 167.852 122.312 170.807 117.779 170.706ZM139.876 148.411V170.471H137.324V148.411H129.131V145.994H148.069V148.411H139.876ZM152.941 170.471V145.994H168.251V148.378H155.526V156.839H167.177V159.223H155.526V168.087H168.386V170.471H152.941ZM192.43 170.471H189.307L182.055 160.566H177.085V170.471H174.5V145.994H182.995C185.882 145.994 188.199 146.799 189.542 148.143C190.885 149.486 191.59 151.164 191.59 153.145C191.59 157.275 188.501 159.659 184.875 160.129L192.43 170.471ZM177.085 148.411V158.215H182.76C184.909 158.215 186.588 157.611 187.561 156.637C188.501 155.697 188.972 154.522 188.972 153.213C188.972 150.795 187.494 148.411 182.827 148.411H177.085ZM215.232 145.994H217.75V170.471H214.963L200.357 149.653V170.471H197.806V145.994H200.794L215.232 166.576V145.994Z" fill="url(#paint2_linear_62_155)"/>
<path d="M54.0362 190.143C53.0236 190.143 52.0551 189.762 51.424 189.204C50.7636 188.632 50.3381 187.869 50.25 187.12L51.3066 186.827C51.424 187.458 51.7469 187.986 52.2752 188.426C52.7888 188.867 53.3758 189.087 54.0362 189.087C54.6526 189.087 55.2249 188.94 55.6799 188.617C56.1348 188.309 56.4283 187.781 56.4283 187.135C56.4283 186.387 56.0321 185.902 55.5331 185.609C55.1809 185.403 54.8727 185.315 54.5205 185.242L53.1117 184.963C52.8182 184.904 52.51 184.802 52.1725 184.655C51.8349 184.493 51.5414 184.303 51.2919 184.053C50.793 183.569 50.5435 182.953 50.5435 182.204C50.5435 181.617 50.7049 181.089 51.0278 180.634C51.3507 180.164 51.7616 179.827 52.2752 179.577C52.7888 179.342 53.3318 179.225 53.9335 179.225C56.2375 179.225 57.2501 180.649 57.4703 181.793L56.443 182.116C56.2669 181.353 55.5771 180.267 53.9188 180.267C52.7742 180.238 51.6588 181.045 51.6735 182.16C51.6735 182.982 52.1871 183.642 53.2291 183.848L54.5792 184.112C55.4891 184.288 56.1935 184.596 56.6631 185.051C56.986 185.345 57.2208 185.682 57.3675 186.034C57.5143 186.401 57.5877 186.724 57.5877 187.018C57.6023 188.896 56.0174 190.187 54.0362 190.143ZM63.6941 180.399V190.041H62.5788V180.399H58.998V179.342H67.2749V180.399H63.6941ZM77.2849 190.041L76.1109 187.311H70.2848L69.1108 190.041H67.9661L72.5741 179.342H73.8509L78.4736 190.041H77.2849ZM75.6853 186.284L73.1905 180.502L70.7104 186.284H75.6853ZM88.1902 190.041H86.8254L83.6555 185.712H81.4835V190.041H80.3535V179.342H84.0664C85.3285 179.342 86.3411 179.695 86.9281 180.282C87.5151 180.869 87.8233 181.602 87.8233 182.468C87.8233 184.273 86.4732 185.315 84.8882 185.521L88.1902 190.041ZM81.4835 180.399V184.684H83.9637C84.9029 184.684 85.6367 184.42 86.0622 183.994C86.4732 183.584 86.6786 183.07 86.6786 182.498C86.6786 181.441 86.0329 180.399 83.993 180.399H81.4835ZM102.546 190.041H101.181L98.0109 185.712H95.839V190.041H94.709V179.342H98.4218C99.6839 179.342 100.696 179.695 101.284 180.282C101.871 180.869 102.179 181.602 102.179 182.468C102.179 184.273 100.829 185.315 99.2436 185.521L102.546 190.041ZM95.839 180.399V184.684H98.3191C99.2583 184.684 99.9921 184.42 100.418 183.994C100.829 183.584 101.034 183.07 101.034 182.498C101.034 181.441 100.388 180.399 98.3484 180.399H95.839ZM104.895 190.041V179.342H111.587V180.384H106.025V184.083H111.117V185.124H106.025V188.999H111.646V190.041H104.895ZM117.283 190.143C116.27 190.143 115.301 189.762 114.67 189.204C114.01 188.632 113.584 187.869 113.496 187.12L114.553 186.827C114.67 187.458 114.993 187.986 115.522 188.426C116.035 188.867 116.622 189.087 117.283 189.087C117.899 189.087 118.471 188.94 118.926 188.617C119.381 188.309 119.675 187.781 119.675 187.135C119.675 186.387 119.278 185.902 118.779 185.609C118.427 185.403 118.119 185.315 117.767 185.242L116.358 184.963C116.065 184.904 115.756 184.802 115.419 184.655C115.081 184.493 114.788 184.303 114.538 184.053C114.039 183.569 113.79 182.953 113.79 182.204C113.79 181.617 113.951 181.089 114.274 180.634C114.597 180.164 115.008 179.827 115.522 179.577C116.035 179.342 116.578 179.225 117.18 179.225C119.484 179.225 120.496 180.649 120.717 181.793L119.689 182.116C119.513 181.353 118.823 180.267 117.165 180.267C116.02 180.238 114.905 181.045 114.92 182.16C114.92 182.982 115.433 183.642 116.475 183.848L117.826 184.112C118.735 184.288 119.44 184.596 119.909 185.051C120.232 185.345 120.467 185.682 120.614 186.034C120.761 186.401 120.834 186.724 120.834 187.018C120.849 188.896 119.264 190.187 117.283 190.143ZM133.442 184.67C133.442 185.682 133.207 186.607 132.752 187.443C132.282 188.28 131.637 188.94 130.815 189.424C129.978 189.909 129.068 190.158 128.041 190.158C127.293 190.158 126.588 190.011 125.913 189.733C125.253 189.454 124.68 189.072 124.211 188.573C123.741 188.104 123.374 187.531 123.095 186.856C122.831 186.181 122.685 185.477 122.685 184.728C122.685 183.716 122.919 182.791 123.389 181.955C123.844 181.118 124.49 180.443 125.326 179.959C126.148 179.474 127.072 179.24 128.085 179.24C128.834 179.24 129.538 179.372 130.213 179.651C130.873 179.944 131.446 180.326 131.915 180.795C132.385 181.294 132.767 181.867 133.031 182.527C133.31 183.202 133.442 183.906 133.442 184.67ZM132.282 184.728C132.282 183.525 131.842 182.41 131.108 181.602C130.374 180.795 129.274 180.282 128.041 180.282C127.249 180.282 126.53 180.487 125.884 180.869C125.238 181.28 124.739 181.808 124.387 182.468C124.035 183.143 123.859 183.877 123.859 184.67C123.859 185.858 124.299 186.988 125.033 187.781C125.766 188.588 126.867 189.102 128.085 189.102C128.878 189.102 129.597 188.896 130.242 188.5C130.903 188.118 131.402 187.575 131.754 186.915C132.106 186.254 132.282 185.521 132.282 184.728ZM142.791 179.342H143.921V185.858C143.921 187.208 143.554 188.265 142.865 189.013C142.16 189.762 141.162 190.143 139.886 190.143C138.623 190.143 137.626 189.762 136.936 188.999C136.231 188.236 135.879 187.223 135.879 185.932V179.342H136.994V185.873C136.994 187.003 137.317 187.869 137.846 188.353C138.389 188.852 139.078 189.087 139.944 189.087C140.854 189.087 141.559 188.823 142.057 188.265C142.542 187.707 142.791 186.944 142.791 185.932V179.342ZM154.929 190.041H153.564L150.395 185.712H148.223V190.041H147.093V179.342H150.805C152.068 179.342 153.08 179.695 153.667 180.282C154.254 180.869 154.562 181.602 154.562 182.468C154.562 184.273 153.212 185.315 151.627 185.521L154.929 190.041ZM148.223 180.399V184.684H150.703C151.642 184.684 152.376 184.42 152.801 183.994C153.212 183.584 153.418 183.07 153.418 182.498C153.418 181.441 152.772 180.399 150.732 180.399H148.223ZM161.872 190.158C160.405 190.158 159.04 189.586 158.086 188.647C157.616 188.177 157.235 187.605 156.956 186.93C156.677 186.24 156.53 185.506 156.53 184.728C156.53 183.936 156.677 183.187 156.971 182.498C157.264 181.808 157.646 181.221 158.13 180.751C159.113 179.797 160.478 179.225 161.916 179.225C163.046 179.225 164.073 179.563 164.763 180.047C165.115 180.282 165.424 180.56 165.702 180.869C166.245 181.5 166.539 182.131 166.7 182.747L165.629 183.129C165.541 182.776 165.394 182.395 164.998 181.837C164.793 181.558 164.572 181.309 164.308 181.089C164.044 180.869 163.707 180.678 163.281 180.531C162.855 180.37 162.4 180.296 161.887 180.296C160.771 180.296 159.7 180.751 158.952 181.5C158.189 182.263 157.704 183.393 157.704 184.655C157.704 185.491 157.88 186.254 158.247 186.93C158.6 187.605 159.098 188.133 159.759 188.514C160.39 188.896 161.109 189.087 161.901 189.087C162.885 189.087 163.736 188.749 164.25 188.338C164.514 188.133 164.749 187.898 164.954 187.605C165.159 187.326 165.306 187.076 165.409 186.871C165.497 186.665 165.585 186.445 165.658 186.225L166.73 186.607C166.568 187.179 166.289 187.766 165.746 188.426C165.482 188.749 165.159 189.043 164.822 189.292C164.117 189.791 163.046 190.158 161.872 190.158ZM169.094 190.041V179.342H175.786V180.384H170.224V184.083H175.316V185.124H170.224V188.999H175.845V190.041H169.094ZM181.481 190.143C180.469 190.143 179.5 189.762 178.869 189.204C178.209 188.632 177.783 187.869 177.695 187.12L178.752 186.827C178.869 187.458 179.192 187.986 179.72 188.426C180.234 188.867 180.821 189.087 181.481 189.087C182.098 189.087 182.67 188.94 183.125 188.617C183.58 188.309 183.873 187.781 183.873 187.135C183.873 186.387 183.477 185.902 182.978 185.609C182.626 185.403 182.318 185.315 181.966 185.242L180.557 184.963C180.263 184.904 179.955 184.802 179.618 184.655C179.28 184.493 178.987 184.303 178.737 184.053C178.238 183.569 177.989 182.953 177.989 182.204C177.989 181.617 178.15 181.089 178.473 180.634C178.796 180.164 179.207 179.827 179.72 179.577C180.234 179.342 180.777 179.225 181.379 179.225C183.683 179.225 184.695 180.649 184.915 181.793L183.888 182.116C183.712 181.353 183.022 180.267 181.364 180.267C180.219 180.238 179.104 181.045 179.119 182.16C179.119 182.982 179.632 183.642 180.674 183.848L182.024 184.112C182.934 184.288 183.639 184.596 184.108 185.051C184.431 185.345 184.666 185.682 184.813 186.034C184.959 186.401 185.033 186.724 185.033 187.018C185.047 188.896 183.463 190.187 181.481 190.143ZM191.801 190.041V179.342H192.931V190.041H191.801ZM203.866 179.342H204.966V190.041H203.748L197.364 180.942V190.041H196.249V179.342H197.555L203.866 188.338V179.342ZM212.892 190.158C211.425 190.158 210.06 189.586 209.106 188.647C208.637 188.177 208.255 187.605 207.976 186.93C207.697 186.24 207.551 185.506 207.551 184.728C207.551 183.936 207.697 183.187 207.991 182.498C208.284 181.808 208.666 181.221 209.15 180.751C210.133 179.797 211.498 179.225 212.936 179.225C214.066 179.225 215.094 179.563 215.783 180.047C216.136 180.282 216.444 180.56 216.723 180.869C217.266 181.5 217.559 182.131 217.721 182.747L216.649 183.129C216.561 182.776 216.415 182.395 216.018 181.837C215.813 181.558 215.593 181.309 215.329 181.089C215.064 180.869 214.727 180.678 214.301 180.531C213.876 180.37 213.421 180.296 212.907 180.296C211.792 180.296 210.72 180.751 209.972 181.5C209.209 182.263 208.725 183.393 208.725 184.655C208.725 185.491 208.901 186.254 209.268 186.93C209.62 187.605 210.119 188.133 210.779 188.514C211.41 188.896 212.129 189.087 212.922 189.087C213.905 189.087 214.756 188.749 215.27 188.338C215.534 188.133 215.769 187.898 215.974 187.605C216.18 187.326 216.326 187.076 216.429 186.871C216.517 186.665 216.605 186.445 216.679 186.225L217.75 186.607C217.589 187.179 217.31 187.766 216.767 188.426C216.503 188.749 216.18 189.043 215.842 189.292C215.138 189.791 214.066 190.158 212.892 190.158Z" fill="url(#paint3_linear_62_155)"/>
<defs>
<linearGradient id="paint0_linear_62_155" x1="8.375" y1="8.375" x2="259.625" y2="8.375" gradientUnits="userSpaceOnUse">
<stop stop-color="#8F5E25"/>
<stop offset="0.5" stop-color="#FBF4A1"/>
<stop offset="1" stop-color="#8F5E25"/>
</linearGradient>
<linearGradient id="paint1_linear_62_155" x1="102.175" y1="77.8875" x2="166.598" y2="77.8875" gradientUnits="userSpaceOnUse">
<stop stop-color="#8F5E25"/>
<stop offset="0.5" stop-color="#FBF4A1"/>
<stop offset="1" stop-color="#8F5E25"/>
</linearGradient>
<linearGradient id="paint2_linear_62_155" x1="50.25" y1="145.725" x2="217.75" y2="145.725" gradientUnits="userSpaceOnUse">
<stop stop-color="#8F5E25"/>
<stop offset="0.5" stop-color="#FBF4A1"/>
<stop offset="1" stop-color="#8F5E25"/>
</linearGradient>
<linearGradient id="paint3_linear_62_155" x1="50.25" y1="179.225" x2="217.75" y2="179.225" gradientUnits="userSpaceOnUse">
<stop stop-color="#8F5E25"/>
<stop offset="0.5" stop-color="#FBF4A1"/>
<stop offset="1" stop-color="#8F5E25"/>
</linearGradient>
</defs>
</svg>
