<svg width="190" height="25" viewBox="0 0 190 25" fill="none" xmlns="http://www.w3.org/2000/svg">
<path d="M8.33521 23.6754L2.56035 4.01419C2.40457 3.5246 2.22654 3.15742 2.02626 2.91263C1.82597 2.66783 1.49217 2.46755 1.02484 2.31177L0.624268 2.17825V1.47726H9.23649V2.17825L8.53549 2.41192C8.02365 2.56769 7.68985 2.79023 7.53407 3.07953C7.40055 3.36883 7.40055 3.7694 7.53407 4.28123L11.1726 17.9673L15.1449 6.11717L14.544 4.18109C14.3882 3.71376 14.2325 3.3577 14.0767 3.11291C13.9209 2.84586 13.665 2.63445 13.3089 2.47868L12.5746 2.17825V1.47726H20.7528V2.17825L19.8182 2.47868C19.3731 2.63445 19.1172 2.85699 19.0504 3.14629C18.9836 3.43559 19.0282 3.82503 19.1839 4.31461L23.3899 18.1676L27.2621 4.5149C27.4178 4.00306 27.4623 3.55799 27.3956 3.17967C27.3288 2.80136 27.0395 2.53431 26.5277 2.37854L25.8601 2.17825V1.47726H30.8004V2.17825L29.9659 2.4453C29.5208 2.60107 29.1981 2.83474 28.9979 3.14629C28.8198 3.43559 28.6641 3.82503 28.5305 4.31461L23.0561 23.6754H20.7528L15.8125 8.12001L10.6385 23.6754H8.33521Z" fill="url(#paint0_linear_69_62)"/>
<path d="M37.015 7.01845C38.417 7.01845 39.6187 7.30775 40.6201 7.88635C41.6215 8.46495 42.3893 9.26609 42.9233 10.2898C43.4797 11.2912 43.7579 12.4484 43.7579 13.7614C43.7579 14.0507 43.7467 14.3288 43.7245 14.5959C43.7022 14.8407 43.6577 15.0743 43.591 15.2969H33.5434C33.5656 17.589 33.9884 19.2358 34.8118 20.2372C35.6575 21.2386 36.8814 21.7393 38.4837 21.7393C39.5964 21.7393 40.4977 21.5613 41.1875 21.2052C41.8774 20.8269 42.5116 20.304 43.0902 19.6364L43.6243 20.1371C42.9567 21.361 42.0443 22.3179 40.8871 23.0078C39.7522 23.6754 38.3947 24.0092 36.8147 24.0092C35.2347 24.0092 33.8438 23.6754 32.6421 23.0078C31.4404 22.3402 30.4946 21.3833 29.8047 20.1371C29.1371 18.8686 28.8033 17.3553 28.8033 15.5973C28.8033 13.7725 29.1928 12.2258 29.9716 10.9574C30.7728 9.68891 31.7964 8.72087 33.0427 8.05325C34.3111 7.36338 35.6352 7.01845 37.015 7.01845ZM36.8481 7.98649C36.2027 7.98649 35.6352 8.17565 35.1456 8.55396C34.6783 8.91002 34.3 9.55538 34.0107 10.49C33.7437 11.4024 33.5879 12.6932 33.5434 14.3622H39.5185C39.7633 12.1146 39.6743 10.49 39.2515 9.48862C38.8286 8.4872 38.0275 7.98649 36.8481 7.98649Z" fill="url(#paint1_linear_69_62)"/>
<path d="M51.2328 24.0092C50.1646 24.0092 49.1966 23.8868 48.3287 23.642C47.483 23.4195 46.6708 23.0968 45.8919 22.674V18.7351H46.7932L47.7946 20.6378C48.2174 21.4612 48.6959 22.0731 49.2299 22.4737C49.7863 22.8743 50.4873 23.0746 51.3329 23.0746C52.3789 23.0746 53.2134 22.852 53.8365 22.407C54.4596 21.9396 54.7711 21.3165 54.7711 20.5376C54.7711 19.8255 54.5375 19.2469 54.0701 18.8018C53.6028 18.3568 52.7683 17.9451 51.5666 17.5668L50.0978 17.0994C48.7849 16.6989 47.7389 16.098 46.9601 15.2969C46.2034 14.4735 45.8251 13.4498 45.8251 12.2258C45.8251 11.2689 46.081 10.401 46.5929 9.62215C47.1047 8.82101 47.8502 8.18678 48.8294 7.71944C49.8085 7.25212 50.9991 7.01845 52.4011 7.01845C53.3135 7.01845 54.148 7.12972 54.9047 7.35226C55.6835 7.55254 56.4402 7.84184 57.1745 8.22016L56.9743 11.7919H56.1064L55.0716 9.88919C54.7155 9.17707 54.3483 8.68749 53.97 8.42044C53.6139 8.13114 53.0576 7.98649 52.301 7.98649C51.4998 7.98649 50.7877 8.1979 50.1646 8.62072C49.5638 9.02129 49.2633 9.58877 49.2633 10.3231C49.2633 11.013 49.5192 11.5805 50.0311 12.0256C50.5429 12.4484 51.3663 12.8489 52.5013 13.2273L53.9366 13.6612C55.5611 14.173 56.7183 14.8518 57.4082 15.6974C58.0981 16.5431 58.443 17.5556 58.443 18.7351C58.443 20.3151 57.8088 21.5947 56.5403 22.5739C55.2941 23.5308 53.5249 24.0092 51.2328 24.0092Z" fill="url(#paint2_linear_69_62)"/>
<path d="M66.2398 24.0092C64.86 24.0092 63.7696 23.6754 62.9684 23.0078C62.1896 22.3179 61.8001 21.2052 61.8001 19.6697C61.8001 19.1356 61.8001 18.6349 61.8001 18.1676C61.8224 17.678 61.8335 17.1105 61.8335 16.4652V8.55396H59.4635V7.81959L60.3647 7.68607C61.0101 7.5748 61.5553 7.37451 62.0004 7.08521C62.4677 6.79591 62.8906 6.39534 63.2689 5.88351L65.4386 2.87924H66.44L66.3399 7.51916H70.1453V8.55396H66.3065V19.9368C66.3065 20.7379 66.4734 21.3388 66.8072 21.7393C67.1633 22.1399 67.5972 22.3402 68.1091 22.3402C68.5541 22.3402 68.9547 22.24 69.3108 22.0398C69.6668 21.8172 70.0229 21.5279 70.379 21.1719L70.8129 21.6726C70.3901 22.407 69.8004 22.9855 69.0437 23.4084C68.2871 23.8089 67.3524 24.0092 66.2398 24.0092Z" fill="url(#paint3_linear_69_62)"/>
<path d="M80.2077 7.01845C81.6097 7.01845 82.8114 7.30775 83.8129 7.88635C84.8143 8.46495 85.582 9.26609 86.1161 10.2898C86.6725 11.2912 86.9506 12.4484 86.9506 13.7614C86.9506 14.0507 86.9395 14.3288 86.9173 14.5959C86.895 14.8407 86.8505 15.0743 86.7837 15.2969H76.7362C76.7584 17.589 77.1812 19.2358 78.0046 20.2372C78.8503 21.2386 80.0742 21.7393 81.6765 21.7393C82.7892 21.7393 83.6905 21.5613 84.3803 21.2052C85.0702 20.8269 85.7044 20.304 86.283 19.6364L86.8171 20.1371C86.1495 21.361 85.2371 22.3179 84.0799 23.0078C82.945 23.6754 81.5875 24.0092 80.0075 24.0092C78.4274 24.0092 77.0366 23.6754 75.8349 23.0078C74.6332 22.3402 73.6874 21.3833 72.9975 20.1371C72.3299 18.8686 71.9961 17.3553 71.9961 15.5973C71.9961 13.7725 72.3855 12.2258 73.1644 10.9574C73.9656 9.68891 74.9892 8.72087 76.2354 8.05325C77.5039 7.36338 78.828 7.01845 80.2077 7.01845ZM80.0408 7.98649C79.3955 7.98649 78.828 8.17565 78.3384 8.55396C77.8711 8.91002 77.4928 9.55538 77.2035 10.49C76.9364 11.4024 76.7807 12.6932 76.7362 14.3622H82.7113C82.9561 12.1146 82.8671 10.49 82.4443 9.48862C82.0214 8.4872 81.2203 7.98649 80.0408 7.98649Z" fill="url(#paint4_linear_69_62)"/>
<path d="M88.6507 23.5419V22.9077L89.1514 22.7408C89.5965 22.6295 89.8969 22.4403 90.0527 22.1733C90.2307 21.9062 90.3198 21.5502 90.3198 21.1051V11.3246C90.2975 10.835 90.2085 10.4678 90.0527 10.223C89.8969 9.95595 89.5965 9.77792 89.1514 9.68891L88.6507 9.55538V8.95453L94.0918 7.01845L94.4923 7.38564L94.7928 10.3231V10.5568C95.1266 9.9337 95.5494 9.3551 96.0612 8.82101C96.5731 8.28692 97.1294 7.85297 97.7303 7.51916C98.3311 7.18535 98.932 7.01845 99.5328 7.01845C100.378 7.01845 101.013 7.24099 101.436 7.68607C101.858 8.13114 102.07 8.69861 102.07 9.38848C102.07 10.1451 101.858 10.7237 101.436 11.1243C101.013 11.5026 100.501 11.6917 99.9 11.6917C99.0099 11.6917 98.2421 11.2912 97.5967 10.49L97.53 10.4233C97.3074 10.1562 97.0515 10.0116 96.7622 9.98933C96.4952 9.94483 96.2281 10.0783 95.9611 10.3899C95.7385 10.6124 95.5271 10.8795 95.3269 11.191C95.1488 11.4803 94.9819 11.8253 94.8261 12.2258V20.9716C94.8261 21.3944 94.9152 21.7505 95.0932 22.0398C95.2712 22.3068 95.5716 22.496 95.9945 22.6072L96.9959 22.9077V23.5419H88.6507Z" fill="url(#paint5_linear_69_62)"/>
<path d="M103.157 23.5419V22.9077L103.691 22.7741C104.425 22.5516 104.793 22.0064 104.793 21.1385V11.2912C104.77 10.8239 104.692 10.4678 104.559 10.223C104.425 9.95595 104.136 9.77792 103.691 9.68891L103.157 9.55538V8.95453L108.565 7.01845L108.965 7.38564L109.199 9.45524C110 8.74312 110.89 8.16452 111.869 7.71944C112.871 7.25212 113.85 7.01845 114.807 7.01845C116.276 7.01845 117.399 7.41902 118.178 8.22016C118.979 9.02129 119.38 10.2453 119.38 11.892V21.1719C119.38 22.0398 119.781 22.585 120.582 22.8075L120.949 22.9077V23.5419H113.271V22.9077L113.772 22.7741C114.506 22.5293 114.874 21.9841 114.874 21.1385V11.2244C114.874 10.4455 114.707 9.87807 114.373 9.522C114.039 9.16594 113.483 8.98791 112.704 8.98791C111.613 8.98791 110.478 9.46637 109.299 10.4233V21.1719C109.299 22.0398 109.688 22.585 110.467 22.8075L110.801 22.9077V23.5419H103.157Z" fill="url(#paint6_linear_69_62)"/>
<path d="M136.836 24.1094C135.612 24.1094 134.366 23.9536 133.098 23.642C131.851 23.3527 130.805 22.9633 129.96 22.4737L130.16 17.8338H131.128L132.163 20.1371C132.475 20.7824 132.797 21.3165 133.131 21.7393C133.465 22.1622 133.91 22.4848 134.466 22.7074C134.845 22.8632 135.201 22.9744 135.534 23.0412C135.89 23.0857 136.28 23.1079 136.703 23.1079C138.06 23.1079 139.128 22.763 139.907 22.0731C140.708 21.361 141.109 20.4264 141.109 19.2692C141.109 18.2232 140.831 17.3998 140.274 16.799C139.74 16.1981 138.872 15.6195 137.671 15.0632L136.302 14.4623C134.433 13.639 132.953 12.682 131.863 11.5916C130.794 10.5012 130.26 9.05467 130.26 7.25212C130.26 5.91689 130.594 4.78194 131.262 3.84729C131.952 2.89037 132.897 2.156 134.099 1.64416C135.301 1.13232 136.703 0.876404 138.305 0.876404C139.484 0.876404 140.586 1.03218 141.61 1.34373C142.656 1.65529 143.568 2.07811 144.347 2.6122L144.113 6.75141H143.145L141.91 4.24785C141.554 3.51348 141.209 2.99051 140.875 2.67896C140.564 2.34515 140.174 2.13374 139.707 2.04473C139.44 2.00022 139.206 1.96684 139.006 1.94459C138.828 1.92233 138.583 1.91121 138.272 1.91121C137.181 1.91121 136.235 2.23389 135.434 2.87924C134.655 3.50235 134.266 4.37025 134.266 5.48294C134.266 6.55112 134.566 7.41902 135.167 8.08663C135.768 8.75425 136.636 9.34397 137.771 9.85581L139.273 10.49C141.432 11.4247 142.978 12.4261 143.913 13.4943C144.848 14.5402 145.315 15.8866 145.315 17.5334C145.315 19.4917 144.569 21.0828 143.078 22.3068C141.61 23.5085 139.529 24.1094 136.836 24.1094Z" fill="url(#paint7_linear_69_62)"/>
<path d="M152.919 24.0092C151.539 24.0092 150.449 23.6754 149.647 23.0078C148.869 22.3179 148.479 21.2052 148.479 19.6697C148.479 19.1356 148.479 18.6349 148.479 18.1676C148.501 17.678 148.512 17.1105 148.512 16.4652V8.55396H146.142V7.81959L147.044 7.68607C147.689 7.5748 148.234 7.37451 148.679 7.08521C149.147 6.79591 149.57 6.39534 149.948 5.88351L152.118 2.87924H153.119L153.019 7.51916H156.824V8.55396H152.985V19.9368C152.985 20.7379 153.152 21.3388 153.486 21.7393C153.842 22.1399 154.276 22.3402 154.788 22.3402C155.233 22.3402 155.634 22.24 155.99 22.0398C156.346 21.8172 156.702 21.5279 157.058 21.1719L157.492 21.6726C157.069 22.407 156.479 22.9855 155.723 23.4084C154.966 23.8089 154.031 24.0092 152.919 24.0092Z" fill="url(#paint8_linear_69_62)"/>
<path d="M163.447 24.0092C162.178 24.0092 161.099 23.6532 160.209 22.941C159.341 22.2067 158.907 21.1607 158.907 19.8033C158.907 18.7351 159.419 17.7559 160.443 16.8658C161.489 15.9534 163.124 15.2857 165.35 14.8629C165.728 14.7739 166.162 14.696 166.651 14.6292C167.163 14.5402 167.664 14.4512 168.154 14.3622V11.9922C168.154 10.4789 167.964 9.43299 167.586 8.85439C167.208 8.27579 166.607 7.98649 165.784 7.98649H165.683C165.172 7.98649 164.76 8.15339 164.448 8.4872C164.159 8.79875 163.97 9.32172 163.881 10.0561L163.781 10.49C163.714 11.3802 163.48 12.0367 163.08 12.4595C162.679 12.8601 162.178 13.0604 161.578 13.0604C161.021 13.0604 160.554 12.8935 160.176 12.5596C159.82 12.2036 159.642 11.7474 159.642 11.191C159.642 10.2786 159.953 9.51088 160.576 8.88777C161.199 8.26466 162.023 7.79733 163.046 7.48578C164.092 7.17423 165.216 7.01845 166.418 7.01845C168.398 7.01845 169.912 7.49691 170.958 8.45382C172.004 9.41073 172.526 10.9685 172.526 13.1271V20.571C172.526 21.5279 172.983 22.0064 173.895 22.0064H174.663L174.997 22.3736C174.596 22.8854 174.151 23.2749 173.661 23.5419C173.172 23.8312 172.504 23.9758 171.659 23.9758C170.702 23.9758 169.934 23.7533 169.355 23.3082C168.799 22.8409 168.432 22.2289 168.254 21.4723C167.542 22.2289 166.841 22.8409 166.151 23.3082C165.461 23.7756 164.56 24.0092 163.447 24.0092ZM165.383 21.8729C165.828 21.8729 166.251 21.7727 166.651 21.5724C167.052 21.3722 167.553 21.0383 168.154 20.571V15.2301C167.575 15.3191 166.985 15.4304 166.384 15.5639C165.428 15.7864 164.649 16.1981 164.048 16.799C163.469 17.3998 163.18 18.2121 163.18 19.2358C163.18 20.1259 163.38 20.7936 163.781 21.2386C164.204 21.6614 164.738 21.8729 165.383 21.8729Z" fill="url(#paint9_linear_69_62)"/>
<path d="M175.656 23.5419V22.9077L176.156 22.7408C176.601 22.6295 176.902 22.4403 177.058 22.1733C177.236 21.9062 177.325 21.5502 177.325 21.1051V11.3246C177.302 10.835 177.213 10.4678 177.058 10.223C176.902 9.95595 176.601 9.77792 176.156 9.68891L175.656 9.55538V8.95453L181.097 7.01845L181.497 7.38564L181.798 10.3231V10.5568C182.132 9.9337 182.554 9.3551 183.066 8.82101C183.578 8.28692 184.134 7.85297 184.735 7.51916C185.336 7.18535 185.937 7.01845 186.538 7.01845C187.383 7.01845 188.018 7.24099 188.44 7.68607C188.863 8.13114 189.075 8.69861 189.075 9.38848C189.075 10.1451 188.863 10.7237 188.44 11.1243C188.018 11.5026 187.506 11.6917 186.905 11.6917C186.015 11.6917 185.247 11.2912 184.602 10.49L184.535 10.4233C184.312 10.1562 184.056 10.0116 183.767 9.98933C183.5 9.94483 183.233 10.0783 182.966 10.3899C182.743 10.6124 182.532 10.8795 182.332 11.191C182.154 11.4803 181.987 11.8253 181.831 12.2258V20.9716C181.831 21.3944 181.92 21.7505 182.098 22.0398C182.276 22.3068 182.577 22.496 182.999 22.6072L184.001 22.9077V23.5419H175.656Z" fill="url(#paint10_linear_69_62)"/>
<defs>
<linearGradient id="paint0_linear_69_62" x1="0.624268" y1="0.876404" x2="189.075" y2="0.876404" gradientUnits="userSpaceOnUse">
<stop stop-color="#8F5E25"/>
<stop offset="0.5" stop-color="#FBF4A1"/>
<stop offset="1" stop-color="#8F5E25"/>
</linearGradient>
<linearGradient id="paint1_linear_69_62" x1="0.624268" y1="0.876404" x2="189.075" y2="0.876404" gradientUnits="userSpaceOnUse">
<stop stop-color="#8F5E25"/>
<stop offset="0.5" stop-color="#FBF4A1"/>
<stop offset="1" stop-color="#8F5E25"/>
</linearGradient>
<linearGradient id="paint2_linear_69_62" x1="0.624268" y1="0.876404" x2="189.075" y2="0.876404" gradientUnits="userSpaceOnUse">
<stop stop-color="#8F5E25"/>
<stop offset="0.5" stop-color="#FBF4A1"/>
<stop offset="1" stop-color="#8F5E25"/>
</linearGradient>
<linearGradient id="paint3_linear_69_62" x1="0.624268" y1="0.876404" x2="189.075" y2="0.876404" gradientUnits="userSpaceOnUse">
<stop stop-color="#8F5E25"/>
<stop offset="0.5" stop-color="#FBF4A1"/>
<stop offset="1" stop-color="#8F5E25"/>
</linearGradient>
<linearGradient id="paint4_linear_69_62" x1="0.624268" y1="0.876404" x2="189.075" y2="0.876404" gradientUnits="userSpaceOnUse">
<stop stop-color="#8F5E25"/>
<stop offset="0.5" stop-color="#FBF4A1"/>
<stop offset="1" stop-color="#8F5E25"/>
</linearGradient>
<linearGradient id="paint5_linear_69_62" x1="0.624268" y1="0.876404" x2="189.075" y2="0.876404" gradientUnits="userSpaceOnUse">
<stop stop-color="#8F5E25"/>
<stop offset="0.5" stop-color="#FBF4A1"/>
<stop offset="1" stop-color="#8F5E25"/>
</linearGradient>
<linearGradient id="paint6_linear_69_62" x1="0.624268" y1="0.876404" x2="189.075" y2="0.876404" gradientUnits="userSpaceOnUse">
<stop stop-color="#8F5E25"/>
<stop offset="0.5" stop-color="#FBF4A1"/>
<stop offset="1" stop-color="#8F5E25"/>
</linearGradient>
<linearGradient id="paint7_linear_69_62" x1="0.624268" y1="0.876404" x2="189.075" y2="0.876404" gradientUnits="userSpaceOnUse">
<stop stop-color="#8F5E25"/>
<stop offset="0.5" stop-color="#FBF4A1"/>
<stop offset="1" stop-color="#8F5E25"/>
</linearGradient>
<linearGradient id="paint8_linear_69_62" x1="0.624268" y1="0.876404" x2="189.075" y2="0.876404" gradientUnits="userSpaceOnUse">
<stop stop-color="#8F5E25"/>
<stop offset="0.5" stop-color="#FBF4A1"/>
<stop offset="1" stop-color="#8F5E25"/>
</linearGradient>
<linearGradient id="paint9_linear_69_62" x1="0.624268" y1="0.876404" x2="189.075" y2="0.876404" gradientUnits="userSpaceOnUse">
<stop stop-color="#8F5E25"/>
<stop offset="0.5" stop-color="#FBF4A1"/>
<stop offset="1" stop-color="#8F5E25"/>
</linearGradient>
<linearGradient id="paint10_linear_69_62" x1="0.624268" y1="0.876404" x2="189.075" y2="0.876404" gradientUnits="userSpaceOnUse">
<stop stop-color="#8F5E25"/>
<stop offset="0.5" stop-color="#FBF4A1"/>
<stop offset="1" stop-color="#8F5E25"/>
</linearGradient>
</defs>
</svg>
